<?xml version="1.0" encoding="iso-8859-1"?>
<!-- Generator: Adobe Illustrator 18.1.1, SVG Export Plug-In . SVG Version: 6.00 Build 0)  -->
<svg version="1.1" id="Capa_1" xmlns="http://www.w3.org/2000/svg" xmlns:xlink="http://www.w3.org/1999/xlink" x="0px" y="0px"
	 viewBox="0 0 250 250" style="enable-background:new 0 0 250 250;" xml:space="preserve">
<path color-rendering="auto" image-rendering="auto" shape-rendering="auto" color-interpolation="sRGB" d="M5,0
	C2.239,0,0,2.239,0,5v20c0,2.761,2.239,5,5,5h15.049c1.203,42.726,28.183,79.981,67.231,95c-39.047,15.019-66.028,52.274-67.231,95
	H5c-2.761,0-5,2.239-5,5v20c0,2.761,2.239,5,5,5h240c2.761,0,5-2.239,5-5v-20c0-2.761-2.239-5-5-5h-14.978
	c-1.203-42.726-28.187-79.981-67.235-95c39.048-15.019,66.032-52.274,67.235-95H245c2.761,0,5-2.239,5-5V5c0-2.761-2.239-5-5-5L5,0
	L5,0z M10,10h230v10H10V10z M30.067,30h189.937c-1.356,43.748-32.449,81.012-75.512,90.006c-2.748,0.271-4.756,2.719-4.485,5.467
	c0.219,2.215,1.874,4.018,4.062,4.425c43.282,8.835,74.573,46.21,75.935,90.102h-35.459c-2.207-18.803-13.158-35.461-29.545-44.942
	c-18.564-10.718-41.436-10.718-60,0C78.621,184.544,67.677,201.201,65.475,220H30.067c1.362-43.891,32.649-81.266,75.931-90.102
	c2.716-0.501,4.511-3.109,4.01-5.825c-0.405-2.194-2.214-3.854-4.435-4.07C62.512,111.01,31.423,73.748,30.067,30z M93,65.022
	c0,11.433,6.099,21.997,16,27.713c9.901,5.716,22.099,5.716,32,0c9.901-5.716,16-16.28,16-27.713H93z M10,230h230v10H10V230z"/>
<g>
</g>
<g>
</g>
<g>
</g>
<g>
</g>
<g>
</g>
<g>
</g>
<g>
</g>
<g>
</g>
<g>
</g>
<g>
</g>
<g>
</g>
<g>
</g>
<g>
</g>
<g>
</g>
<g>
</g>
</svg>
